<?xml version="1.0" encoding="UTF-8" standalone="no"?>
<!-- Created with Inkscape (http://www.inkscape.org/) -->

<svg
   version="1.1"
   id="svg1"
   width="792.79999"
   height="452.04001"
   viewBox="0 0 792.79999 452.04001"
   sodipodi:docname="Soustack Mark Persimmon.svg"
   inkscape:version="1.4.2 (f4327f4, 2025-05-13)"
   xmlns:inkscape="http://www.inkscape.org/namespaces/inkscape"
   xmlns:sodipodi="http://sodipodi.sourceforge.net/DTD/sodipodi-0.dtd"
   xmlns="http://www.w3.org/2000/svg"
   xmlns:svg="http://www.w3.org/2000/svg">
  <defs
     id="defs1" />
  <sodipodi:namedview
     id="namedview1"
     pagecolor="#ffffff"
     bordercolor="#000000"
     borderopacity="0.25"
     inkscape:showpageshadow="2"
     inkscape:pageopacity="0.0"
     inkscape:pagecheckerboard="0"
     inkscape:deskcolor="#d1d1d1"
     inkscape:zoom="1.4142136"
     inkscape:cx="-146.01755"
     inkscape:cy="-71.417783"
     inkscape:window-width="3920"
     inkscape:window-height="1725"
     inkscape:window-x="4123"
     inkscape:window-y="36"
     inkscape:window-maximized="0"
     inkscape:current-layer="g1" />
  <g
     inkscape:groupmode="layer"
     inkscape:label="Image"
     id="g1"
     transform="translate(-153.60014,-323.9781)">
    <g
       id="g2"
       style="fill:#fe5e0b;fill-opacity:1;stroke:none;stroke-opacity:1"
       transform="matrix(2.17364,0,0,2.17364,-566.47245,-565.39329)">
      <path
         style="fill:#fe5e0b;fill-opacity:1;stroke:none;stroke-opacity:1"
         d="m 355.29819,428.57098 c -9.35166,3.92676 -8.345,15.89966 0.9104,19.14441 5.23504,1.83533 11.33383,1.28003 16.79141,1.28388 L 400,449 h 198 l 55,-3.7e-4 c 7.13196,-0.003 17.18909,1.36798 22.67578,-4.28283 6.84204,-7.04676 0.21546,-15.70331 -7.73804,-17.15284 C 661.16876,426.33032 653.85217,427 647,427 H 609 431 380 c -7.6936,0 -17.45154,-1.47339 -24.70181,1.57098 m 13.84396,35.6532 c -10.83673,2.80469 -11.84338,16.95764 -0.97659,20.61029 C 375.40952,487.26935 384.46237,486 392,486 h 46 154 l 50,-10e-4 c 6.66296,-0.008 15.5423,0.97247 20.64325,-4.28241 6.51337,-6.70997 1.47809,-16.02204 -6.64136,-17.84369 -6.12298,-1.37372 -12.81402,-0.075 -19.01672,0.0626 C 624.99866,464.20074 612.98907,464 601,464 H 442 l -49,-0.002 c -7.59155,-0.0103 -16.46133,-1.68823 -23.85785,0.22607 m 15.17139,38.40705 c -11.36014,4.8576 -6.61399,18.38617 3.73749,20.65319 C 395.36868,524.88702 403.55209,524 411,524 h 41 130 l 44,-0.002 c 6.61359,-0.0128 14.82806,0.71088 20.0332,-4.21668 6.51538,-6.16796 2.80561,-15.4964 -5.1839,-17.78643 C 635.51025,500.46411 629.49231,501.0025 624,501.00037 L 596,501 H 448 406 c -6.85706,3.7e-4 -15.22974,-1.1297 -21.68646,1.63123 m 24.90735,37.93981 c -10.10462,4.13758 -9.57233,17.39521 0.95703,20.43451 5.92303,1.70966 12.7261,0.99372 18.82208,0.99433 L 461,562 h 107 c 11.66614,0 23.33398,0.0591 34.99994,-0.009 5.75073,-0.0334 12.45953,0.25037 17.17816,-3.62231 6.21875,-5.10394 4.43964,-13.97852 -2.4964,-17.39612 C 608.70673,536.55054 594.74951,539 585,539 H 463 l -35,3.1e-4 c -6.04361,0.002 -13.06158,-0.77045 -18.77911,1.57073 m 28.26516,38.33313 c -9.90246,5.16669 -4.53622,17.4751 4.58545,19.43458 C 453.64233,600.82434 467.20148,599 479,599 h 72 c 7.99719,0 16.00232,0.10193 23.99854,-0.0278 4.78533,-0.0777 10.17279,-0.15796 13.99218,-3.4751 9.26502,-8.04675 0.3067,-17.66797 -9.01526,-18.33228 C 546.66058,574.79071 512.40411,577 479,577 l -26.99982,0.005 c -4.73022,0.0193 -10.18658,-0.35925 -14.51413,1.89868 z"
         id="path1" />
    </g>
  </g>
</svg>
